<svg width="76" height="77" viewBox="0 0 76 77" fill="none" xmlns="http://www.w3.org/2000/svg">
<g clip-path="url(#clip0_44_76)">
<path d="M74.5623 35.0353L41.3788 1.85498C39.4662 -0.0545233 36.3692 -0.0545233 34.4502 1.85498L27.5753 8.74248L36.3153 17.4825C38.3578 16.8016 40.6822 17.2608 42.2972 18.879C43.9312 20.5098 44.3808 22.8626 43.6842 24.8956L52.1012 33.319C54.1437 32.6128 56.4933 33.072 58.1178 34.6965C60.401 36.9765 60.401 40.6625 58.1178 42.9425C55.841 45.2193 52.1613 45.2193 49.8845 42.9425C48.1777 41.2293 47.7502 38.7086 48.6052 36.6218L40.7233 28.7811V49.4436C41.2807 49.716 41.8063 50.0865 42.2687 50.5456C44.5265 52.8288 44.5265 56.5085 42.2687 58.779C39.9918 61.0621 36.2868 61.0621 34.0068 58.779C31.73 56.5021 31.73 52.8288 34.0068 50.552C34.5832 49.982 35.2323 49.5513 35.9227 49.2663V28.4011C35.2355 28.113 34.58 27.6981 34.0227 27.1313C32.2968 25.4055 31.882 22.8816 32.7687 20.7695L24.1807 12.1403L1.425 34.8801C-0.475 36.796 -0.475 39.8961 1.425 41.812L34.6117 74.9891C36.5243 76.9018 39.6213 76.9018 41.534 74.9891L74.5623 41.9608C76.4782 40.0513 76.4782 36.9511 74.5623 35.0353Z" fill="#6B6B6B"/>
</g>
<defs>
<clipPath id="clip0_44_76">
<rect width="76" height="76" fill="white" transform="translate(0 0.423584)"/>
</clipPath>
</defs>
</svg>
