<svg width="57" height="77" viewBox="0 0 57 77" fill="none" xmlns="http://www.w3.org/2000/svg">
<g clip-path="url(#clip0_44_79)">
<path d="M41.227 46.8697C42.6817 45.8751 44.7005 45.0142 44.7005 45.0142C44.7005 45.0142 38.9559 46.0533 33.2411 46.5283C26.2497 47.1072 18.7387 47.2259 14.9684 46.7212C6.04733 45.5337 19.8669 42.2533 19.8669 42.2533C19.8669 42.2533 14.5083 41.897 7.9028 45.0736C0.109835 48.8439 27.1997 50.5658 41.227 46.8697ZM28.5505 42.1048C25.7301 35.7666 16.2153 30.2001 28.5505 20.4626C43.9375 8.32046 36.0466 0.423584 36.0466 0.423584C39.238 12.9666 24.8247 16.7666 19.6145 24.5595C16.0669 29.8884 21.3512 35.6033 28.5505 42.1048ZM45.5614 15.9501C45.5762 15.9501 19.5551 22.4517 31.9794 36.7611C35.6458 40.9767 31.0145 44.7767 31.0145 44.7767C31.0145 44.7767 40.3216 39.9673 36.0466 33.9556C32.0536 28.3447 28.9958 25.5541 45.5614 15.9501ZM44.6559 56.1025C44.5748 56.2439 44.4749 56.3737 44.3591 56.4884C63.4036 51.4861 56.3973 38.8392 47.2981 42.0455C46.8067 42.226 46.382 42.5523 46.0809 42.9806C46.6123 42.7883 47.1583 42.6394 47.7137 42.5353C52.3153 41.5705 58.9208 48.6955 44.6559 56.1025ZM51.6562 65.3501C51.6562 65.3501 53.8086 67.1166 49.2961 68.497C40.7016 71.0947 13.5523 71.8814 6.01171 68.6009C3.2953 67.4283 8.38671 65.7806 9.98984 65.4392C11.6523 65.083 12.6172 65.1423 12.6172 65.1423C9.6039 63.0197 -6.87266 69.3134 4.2453 71.1095C34.5622 76.0377 59.5234 68.8978 51.6562 65.3501ZM18.4716 59.2048C6.78952 62.4705 25.5817 69.2095 40.4551 62.8416C39.0046 62.278 37.6043 61.5927 36.2692 60.7931C29.6341 62.0548 26.5614 62.1439 20.5348 61.4611C15.5622 60.897 18.4716 59.2048 18.4716 59.2048ZM45.1606 73.633C33.4786 75.8298 19.0653 75.5775 10.5301 74.1673C10.5301 74.1525 12.2817 75.6072 21.277 76.1861C34.963 77.0619 55.9817 75.6962 56.4716 69.2244C56.4716 69.2244 55.5216 71.6736 45.1606 73.633ZM38.6887 52.822C29.9012 54.5142 24.8098 54.4697 18.3825 53.8017C13.4098 53.2822 16.6606 50.8775 16.6606 50.8775C3.77624 55.1525 23.8153 59.9916 41.8208 54.722C40.6571 54.3111 39.5908 53.6643 38.6887 52.822Z" fill="#6B6B6B"/>
</g>
<defs>
<clipPath id="clip0_44_79">
<rect width="57" height="76" fill="white" transform="translate(0 0.423584)"/>
</clipPath>
</defs>
</svg>
