<svg width="98" height="99" viewBox="0 0 98 99" fill="none" xmlns="http://www.w3.org/2000/svg">
<path d="M45.1006 13.1647L47.2244 17.1537C47.7019 17.8898 48.2192 18.5414 48.8285 19.1482C50.6148 20.9122 52.2799 22.795 53.8123 24.7836C57.4109 29.5087 59.8381 34.7561 61.5715 40.4313C62.611 43.898 63.1755 47.4543 63.2178 51.0504C63.3919 61.8013 59.7063 71.0328 52.2754 78.7049C51.0666 79.9216 49.7608 81.0378 48.3709 82.0424C47.6348 82.0424 47.2866 81.4779 46.9832 80.9581C46.4307 79.9943 46.063 78.9358 45.8989 77.837C45.6378 76.5363 45.4662 75.2357 45.5507 73.8927V73.2859C45.4911 73.1566 44.842 13.4706 45.1006 13.1647Z" fill="#6B6B6B"/>
<path d="M45.1006 13.0328C45.0136 12.8587 44.9265 12.9905 44.8395 13.0751C44.8818 13.9455 44.5783 14.7214 44.1033 15.4625C43.5811 16.1987 42.8897 16.7632 42.1959 17.37C38.3412 20.7075 35.3071 24.7387 32.8774 29.2475C29.6444 35.3156 27.9782 41.8189 27.5057 48.6654C27.2893 51.1349 28.2865 59.8491 29.0649 62.3633C31.1888 69.0382 35.0037 74.6313 39.9452 79.4858C41.1588 80.6546 42.457 81.7389 43.7999 82.7809C44.1904 82.7809 44.2327 82.4328 44.3222 82.1741C44.4934 81.6207 44.6239 81.0555 44.7126 80.483L45.5831 73.9822L45.1006 13.0328Z" fill="#6B6B6B"/>
<path d="M47.2244 84.6834C47.3115 83.6887 47.789 82.863 48.3087 82.0398C47.7865 81.8235 47.3985 81.3932 47.0951 80.9133C46.8335 80.4588 46.6169 79.9799 46.4485 79.4833C45.8417 77.6629 45.7124 75.7529 45.5383 73.8927V72.7661C45.3219 72.9402 45.2772 74.4125 45.2772 74.6313C45.1506 76.5974 44.8897 78.5525 44.4963 80.483C44.367 81.2639 44.2799 82.0423 43.7999 82.7362C43.7999 82.8232 43.7999 82.9103 43.8422 83.0396C44.6231 85.3375 44.837 87.6777 44.9688 90.0626V90.9331C44.9688 91.9726 44.9265 91.7537 45.7895 92.1019C46.1376 92.2312 46.5256 92.276 46.8738 92.5346C47.1349 92.5346 47.1772 92.3183 47.1772 92.1442L47.0479 90.7142V86.7252C47.0056 86.0289 47.1349 85.3375 47.2219 84.6859L47.2244 84.6834Z" fill="#C2BFBF"/>
</svg>
