<svg width="112" height="28" viewBox="0 0 112 28" fill="none" xmlns="http://www.w3.org/2000/svg">
<g clip-path="url(#clip0_44_81)">
<path d="M88.6252 0.934692H111.847V5.20978H102.635V27.7004H98.0287V5.20978H88.6252V0.934692Z" fill="#6B6B6B"/>
<path d="M50.4345 0.934692V5.20978H31.8209V12.0871H46.7899V16.3622H31.8209V23.4254H50.4345V27.7004H27.215V5.20978H27.213V0.934692H50.4345Z" fill="#6B6B6B"/>
<path d="M62.0297 0.945923H56.002L77.592 27.7117H83.6373L72.8409 14.338L83.62 0.966344L77.592 0.975635L69.823 10.5996L62.0297 0.945923Z" fill="#6B6B6B"/>
<path d="M68.2151 20.0648L65.1965 16.3213L55.9848 27.7321H62.0297L68.2151 20.0648Z" fill="#6B6B6B"/>
<path fill-rule="evenodd" clip-rule="evenodd" d="M27.3764 27.7005L5.75738 0.923584H0V27.6893H4.60591V6.64475L21.5902 27.7005H27.3764Z" fill="#6B6B6B"/>
</g>
<defs>
<clipPath id="clip0_44_81">
<rect width="112" height="27" fill="white" transform="translate(0 0.923584)"/>
</clipPath>
</defs>
</svg>
