<svg width="77" height="48" viewBox="0 0 77 48" fill="none" xmlns="http://www.w3.org/2000/svg">
<g clip-path="url(#clip0_47_109)">
<path d="M38.0654 47.788C37.8048 47.788 37.5615 47.7188 37.3355 47.5977L35.0242 46.2311C34.6765 46.0407 34.8504 45.9716 34.9547 45.937C35.4239 45.7813 35.5108 45.7466 35.9974 45.47C36.0496 45.4353 36.1192 45.4526 36.1712 45.4872L37.9439 46.5425C38.0134 46.5771 38.1003 46.5771 38.1523 46.5425L45.0867 42.5463C45.1562 42.5117 45.191 42.4424 45.191 42.356V34.381C45.191 34.2943 45.1562 34.2253 45.0867 34.1906L38.1523 30.2118C38.0829 30.177 37.996 30.177 37.9439 30.2118L31.0096 34.1906C30.9401 34.2252 30.9052 34.3117 30.9052 34.3809V42.3559C30.9052 42.4252 30.9401 42.5116 31.0096 42.5463L32.904 43.6361C33.9293 44.1551 34.5723 43.5496 34.5723 42.9441V35.0728C34.5723 34.9691 34.6592 34.8652 34.7809 34.8652H35.6672C35.7715 34.8652 35.8757 34.9517 35.8757 35.0728V42.9441C35.8757 44.3107 35.1284 45.1066 33.825 45.1066C33.4253 45.1066 33.1125 45.1066 32.2261 44.674L30.4013 43.6361C29.9495 43.3767 29.6714 42.8922 29.6714 42.3733V34.3982C29.6714 33.8793 29.9495 33.3948 30.4013 33.1354L37.3355 29.1392C37.7701 28.897 38.3611 28.897 38.7955 29.1392L45.7297 33.1354C46.1815 33.3948 46.4597 33.8793 46.4597 34.3982V42.3733C46.4597 42.8922 46.1815 43.3767 45.7297 43.6361L38.7955 47.6323C38.5695 47.7362 38.3087 47.788 38.0654 47.788ZM40.2031 42.3041C37.1618 42.3041 36.5362 40.9201 36.5362 39.7438C36.5362 39.6399 36.6231 39.5362 36.7447 39.5362H37.6484C37.7527 39.5362 37.8396 39.6053 37.8396 39.7092C37.9787 40.626 38.3783 41.0758 40.2205 41.0758C41.6803 41.0758 42.3062 40.7471 42.3062 39.9686C42.3062 39.5188 42.1322 39.1903 39.8556 38.9653C37.9612 38.7749 36.7795 38.3598 36.7795 36.8548C36.7795 35.4535 37.9614 34.623 39.9425 34.623C42.1669 34.623 43.2619 35.3843 43.401 37.0449C43.401 37.097 43.3836 37.1488 43.3489 37.2007C43.314 37.2353 43.2619 37.2699 43.2098 37.2699H42.306C42.2191 37.2699 42.1322 37.2007 42.1149 37.1142C41.9063 36.1628 41.3676 35.8513 39.9425 35.8513C38.3436 35.8513 38.1523 36.405 38.1523 36.8201C38.1523 37.3218 38.3783 37.4775 40.5333 37.7542C42.671 38.0311 43.6791 38.429 43.6791 39.9167C43.6616 41.4391 42.4104 42.3041 40.2031 42.3041Z" fill="#6B6B6B"/>
<path d="M16.5501 16.5971C16.5501 16.2857 16.3763 15.9915 16.0982 15.8358L8.72946 11.6148C8.60766 11.5455 8.46872 11.5109 8.32977 11.4935H8.26015C8.12121 11.4935 7.98212 11.5455 7.86047 11.6148L0.491701 15.8358C0.213515 15.9915 0.0398369 16.2856 0.0398369 16.5971L0.0572799 27.9455C0.0572799 28.1011 0.144194 28.2568 0.283137 28.3261C0.42223 28.4126 0.595908 28.4126 0.717708 28.3261L5.09725 25.835C5.37529 25.6793 5.54912 25.3852 5.54912 25.0738V19.7628C5.54912 19.4515 5.7228 19.1574 6.00098 19.0017L7.86047 17.9291C7.99956 17.8426 8.15594 17.8078 8.31233 17.8078C8.46872 17.8078 8.6251 17.8426 8.7469 17.9291L10.6064 19.0017C10.8846 19.1574 11.0582 19.4514 11.0582 19.7628V25.0738C11.0582 25.3852 11.2321 25.6793 11.5101 25.835L15.8897 28.3261C16.0288 28.4126 16.2024 28.4126 16.3415 28.3261C16.4806 28.2568 16.5675 28.1011 16.5675 27.9455L16.5501 16.5971ZM51.9689 0.975561C51.8299 0.906258 51.6561 0.906258 51.5343 0.975561C51.3953 1.06208 51.3084 1.20038 51.3084 1.35605V12.6009C51.3084 12.7046 51.2564 12.8083 51.152 12.8776C51.0478 12.9294 50.9435 12.9294 50.8393 12.8776L48.9971 11.8224C48.862 11.7458 48.7093 11.7056 48.5539 11.7056C48.3984 11.7056 48.2457 11.7458 48.1106 11.8224L40.7419 16.0608C40.4638 16.2164 40.29 16.5106 40.29 16.8219V25.2813C40.29 25.5926 40.4638 25.8869 40.7419 26.0426L48.1106 30.281C48.2457 30.3575 48.3984 30.3978 48.5539 30.3978C48.7093 30.3978 48.862 30.3575 48.9971 30.281L56.3658 26.0426C56.6439 25.8869 56.8177 25.5928 56.8177 25.2813V4.19326C56.8177 3.86456 56.6439 3.57059 56.3658 3.41477L51.9689 0.975561ZM51.2911 22.4962C51.2911 22.5827 51.2564 22.6518 51.1868 22.6864L48.6669 24.1395C48.6317 24.1566 48.593 24.1655 48.5539 24.1655C48.5147 24.1655 48.4761 24.1566 48.4409 24.1395L45.9209 22.6864C45.8513 22.6518 45.8166 22.5653 45.8166 22.4962V19.5898C45.8166 19.5033 45.8513 19.4341 45.9209 19.3996L48.4409 17.9463C48.4761 17.9292 48.5147 17.9203 48.5539 17.9203C48.593 17.9203 48.6317 17.9292 48.6669 17.9463L51.1868 19.3996C51.2564 19.434 51.2911 19.5207 51.2911 19.5898V22.4962ZM76.4909 19.5207C76.769 19.365 76.9254 19.0709 76.9254 18.7594V16.7008C76.9254 16.3895 76.7516 16.0953 76.4909 15.9397L69.1743 11.7187C69.0392 11.6421 68.8865 11.6019 68.7311 11.6019C68.5757 11.6019 68.423 11.6421 68.288 11.7187L60.9192 15.9569C60.641 16.1126 60.4674 16.4067 60.4674 16.7182V25.1776C60.4674 25.4889 60.641 25.783 60.9192 25.9387L68.2358 30.0906C68.514 30.2462 68.8441 30.2462 69.1048 30.0906L73.5364 27.6343C73.6755 27.565 73.7624 27.4093 73.7624 27.2537C73.7624 27.098 73.6755 26.9423 73.5364 26.873L66.1329 22.6346C65.9939 22.5483 65.907 22.4098 65.907 22.2541V19.6073C65.907 19.4517 65.9939 19.296 66.1329 19.2267L68.4444 17.9119C68.512 17.8695 68.5904 17.847 68.6703 17.847C68.7502 17.847 68.8286 17.8695 68.8962 17.9119L71.2076 19.2267C71.3467 19.3132 71.4336 19.4515 71.4336 19.6073V21.6833C71.4336 21.8389 71.5205 21.9946 71.6594 22.0637C71.7985 22.1503 71.9722 22.1503 72.1113 22.0637L76.4909 19.5207Z" fill="#6B6B6B"/>
<path d="M68.6182 19.1228C68.644 19.1059 68.6742 19.0969 68.705 19.0969C68.7359 19.0969 68.7661 19.1059 68.7919 19.1228L70.1996 19.9359C70.2518 19.9703 70.2866 20.0223 70.2866 20.0916V21.7177C70.2866 21.7869 70.2518 21.8388 70.1996 21.8734L68.7919 22.6864C68.7661 22.7033 68.7359 22.7124 68.705 22.7124C68.6742 22.7124 68.644 22.7033 68.6182 22.6864L67.2104 21.8734C67.1583 21.8388 67.1235 21.7869 67.1235 21.7177V20.0916C67.1235 20.0223 67.1583 19.9703 67.2104 19.9359L68.6182 19.1228Z" fill="#6B6B6B"/>
<path d="M28.8719 11.7532C28.7369 11.6767 28.5842 11.6365 28.4288 11.6365C28.2734 11.6365 28.1207 11.6767 27.9856 11.7532L20.669 15.9567C20.3909 16.1124 20.2345 16.4065 20.2345 16.7179V25.1428C20.2345 25.4542 20.4083 25.7483 20.669 25.904L27.9856 30.1078C28.1207 30.1843 28.2734 30.2245 28.4288 30.2245C28.5842 30.2245 28.7369 30.1843 28.8719 30.1078L36.1887 25.904C36.4667 25.7483 36.6232 25.4542 36.6232 25.1428V16.718C36.6232 16.4067 36.4492 16.1126 36.1887 15.9569L28.8719 11.7532Z" fill="#6B6B6B"/>
</g>
<defs>
<clipPath id="clip0_47_109">
<rect width="77" height="47" fill="white" transform="translate(0 0.923584)"/>
</clipPath>
</defs>
</svg>
