<svg width="76" height="77" viewBox="0 0 76 77" fill="none" xmlns="http://www.w3.org/2000/svg">
<path d="M62.0766 26.7267C61.275 26.4595 60.4734 26.2072 59.6719 25.9697C59.8055 25.4204 59.9242 24.8712 60.043 24.322C61.8688 15.4751 60.6664 8.36497 56.6141 6.01965C52.7102 3.77825 46.3422 6.10872 39.9 11.7197C39.2617 12.2689 38.6383 12.8478 38.0445 13.4267C37.6437 13.0407 37.2281 12.6548 36.8125 12.2837C30.0586 6.28684 23.2898 3.7634 19.2375 6.12356C15.3484 8.37981 14.1906 15.0743 15.8234 23.4462C15.9867 24.2775 16.1648 25.0939 16.3727 25.9251C15.4227 26.1923 14.4875 26.4892 13.6117 26.8009C5.68516 29.547 0 33.8814 0 38.3642C0 42.9954 6.05625 47.6415 14.2945 50.4618C14.9625 50.6845 15.6305 50.9072 16.3133 51.1001C16.0906 51.9907 15.8977 52.8665 15.7195 53.772C14.1609 62.0103 15.3781 68.5415 19.2672 70.7829C23.275 73.0986 30.0141 70.7236 36.575 64.979C37.0945 64.5189 37.6141 64.0439 38.1336 63.5392C38.7867 64.1775 39.4695 64.7861 40.1523 65.3798C46.5055 70.8423 52.7844 73.054 56.6586 70.8126C60.6664 68.497 61.9727 61.4759 60.2805 52.9259C60.1469 52.2728 59.9984 51.6048 59.8352 50.922C60.3102 50.7884 60.7703 50.64 61.2305 50.4915C69.7953 47.6564 76 43.0697 76 38.3642C76 33.8665 70.1516 29.5025 62.0766 26.7267ZM41.993 14.1243C47.5148 9.31497 52.6656 7.42981 55.0109 8.78059C57.5195 10.2204 58.4844 16.0392 56.9109 23.6837C56.807 24.1884 56.7031 24.6782 56.5695 25.1681C53.2742 24.4259 49.9344 23.8915 46.5797 23.5947C44.65 20.8337 42.5422 18.1915 40.2563 15.7126C40.8352 15.1634 41.3992 14.6439 41.993 14.1243ZM24.8188 46.0681C25.5758 47.3595 26.3477 48.6509 27.1641 49.9126C24.8484 49.6603 22.5477 49.2892 20.2766 48.7993C20.9297 46.6618 21.7461 44.4501 22.6961 42.1939C23.3789 43.5001 24.0766 44.7915 24.8188 46.0681ZM20.3211 28.2111C22.4586 27.7361 24.7297 27.3501 27.0898 27.0532C26.3031 28.2853 25.5312 29.547 24.8039 30.8236C24.0766 32.0853 23.3641 33.3767 22.6961 34.6829C21.7609 32.4712 20.9742 30.304 20.3211 28.2111ZM24.3883 38.4384C25.368 36.39 26.4367 34.3861 27.5648 32.4118C28.693 30.4376 29.9102 28.5228 31.1867 26.6376C33.4133 26.4743 35.6844 26.3853 38 26.3853C40.3156 26.3853 42.6016 26.4743 44.8133 26.6376C46.075 28.5079 47.2773 30.4228 48.4203 32.3822C49.5633 34.3415 50.632 36.3454 51.6414 38.379C50.6469 40.4275 49.5781 42.4462 48.4352 44.4353C47.307 46.4095 46.1047 48.3243 44.843 50.2243C42.6313 50.3876 40.3305 50.4618 38 50.4618C35.6695 50.4618 33.4133 50.3876 31.2312 50.254C29.9398 48.3689 28.7227 46.4392 27.5797 44.465C26.4367 42.4907 25.3828 40.4868 24.3883 38.4384ZM51.1961 46.0384C51.9531 44.7322 52.6656 43.4111 53.3633 42.0751C54.3133 44.2275 55.1445 46.4095 55.8719 48.6509C53.5711 49.1704 51.2406 49.5712 48.8953 49.8384C49.6969 48.5915 50.4539 47.315 51.1961 46.0384ZM53.3336 34.6829C52.6359 33.3767 51.9234 32.0704 51.1812 30.7939C50.4539 29.5322 49.6969 28.2853 48.9102 27.0532C51.3 27.3501 53.5859 27.7509 55.7234 28.2407C55.0406 30.4376 54.2391 32.5751 53.3336 34.6829ZM38.0297 17.9837C39.5883 19.6759 41.0578 21.4572 42.4234 23.2978C39.4844 23.1642 36.5305 23.1642 33.5914 23.2978C35.0461 21.3829 36.5453 19.6017 38.0297 17.9837ZM20.8109 8.8845C23.3047 7.42981 28.8414 9.50793 34.675 14.6736C35.0461 15.0001 35.4172 15.3564 35.8031 15.7126C33.5023 18.1915 31.3797 20.8337 29.4352 23.5947C26.0805 23.8915 22.7555 24.4111 19.4602 25.1384C19.2672 24.3814 19.1039 23.6095 18.9406 22.8376C17.5453 15.6532 18.4656 10.2353 20.8109 8.8845ZM17.1742 48.0126C16.5508 47.8345 15.9422 47.6415 15.3336 47.4337C12.1719 46.4392 8.57969 44.8657 5.98203 42.8025C4.48281 41.7634 3.47344 40.1603 3.19141 38.3642C3.19141 35.6478 7.88203 32.1743 14.6508 29.8142C15.4969 29.5173 16.3578 29.2501 17.2188 28.9978C18.2281 32.2189 19.4453 35.3806 20.8555 38.4384C19.4305 41.5407 18.1984 44.747 17.1742 48.0126ZM34.482 62.5595C32.0328 64.8009 29.1977 66.5822 26.1102 67.7993C24.4625 68.5861 22.5625 68.6603 20.8703 67.9923C18.5102 66.6267 17.5305 61.3868 18.8664 54.3361C19.0297 53.5048 19.2078 52.6736 19.4156 51.8572C22.7406 52.5697 26.0953 53.0595 29.4945 53.3118C31.4539 56.0876 33.6063 58.7447 35.907 61.2384C35.432 61.6986 34.957 62.1439 34.482 62.5595ZM38.1187 58.9525C36.6047 57.3197 35.0906 55.5087 33.6211 53.5642C35.0461 53.6236 36.5156 53.6533 38 53.6533C39.5289 53.6533 41.0281 53.6236 42.5125 53.5493C41.1469 55.4345 39.6773 57.2306 38.1187 58.9525ZM57.5195 63.4056C57.3859 65.2165 56.4953 66.9087 55.0703 68.0517C52.7102 69.4173 47.6781 67.6361 42.2453 62.9751C41.6219 62.4408 40.9984 61.8618 40.3602 61.2681C42.6312 58.7595 44.7242 56.1025 46.6242 53.3118C50.0234 53.0298 53.4078 52.5103 56.7477 51.7532C56.8961 52.3618 57.0297 52.9704 57.1484 53.5642C57.8758 56.7704 57.9945 60.1103 57.5195 63.4056ZM60.2211 47.4486C59.8055 47.5822 59.3898 47.7157 58.9594 47.8345C57.9203 44.5986 56.6438 41.4368 55.1742 38.3642C56.5992 35.3361 57.8016 32.2189 58.8109 29.0275C59.5828 29.2501 60.325 29.4876 61.0375 29.7251C67.9547 32.1001 72.8086 35.6329 72.8086 38.3345C72.8086 41.2439 67.6281 44.9993 60.2211 47.4486ZM38 45.222C41.7555 45.222 44.7984 42.179 44.7984 38.4236C44.7984 34.6681 41.7555 31.6251 38 31.6251C34.2445 31.6251 31.2016 34.6681 31.2016 38.4236C31.2016 42.179 34.2445 45.222 38 45.222Z" fill="#6B6B6B"/>
</svg>
