<svg width="76" height="77" viewBox="0 0 76 77" fill="none" xmlns="http://www.w3.org/2000/svg">
<g clip-path="url(#clip0_44_70)">
<path d="M38.0032 15.6235C27.8698 15.6235 21.5365 20.6902 19.0032 30.8235C22.8032 25.7569 27.2365 23.8569 32.3032 25.1235C35.1943 25.8455 37.259 27.9419 39.5485 30.2662C43.2757 34.0472 47.5855 38.4235 57.0032 38.4235C67.1365 38.4235 73.4698 33.3569 76.0032 23.2235C72.2032 28.2902 67.7698 30.1902 62.7032 28.9235C59.812 28.2015 57.7473 26.1052 55.4578 23.7809C51.7338 19.9999 47.424 15.6235 38.0032 15.6235ZM19.0032 38.4235C8.86984 38.4235 2.53651 43.4902 0.00317383 53.6235C3.80317 48.5569 8.23651 46.6569 13.3032 47.9235C16.1943 48.6455 18.259 50.7419 20.5485 53.0662C24.2757 56.8472 28.5855 61.2235 38.0032 61.2235C48.1365 61.2235 54.4698 56.1569 57.0032 46.0235C53.2032 51.0902 48.7698 52.9902 43.7032 51.7235C40.812 51.0015 38.7473 48.9052 36.4578 46.5809C32.7338 42.7999 28.424 38.4235 19.0032 38.4235Z" fill="#6B6B6B"/>
</g>
<defs>
<clipPath id="clip0_44_70">
<rect width="76" height="76" fill="white" transform="translate(0 0.423584)"/>
</clipPath>
</defs>
</svg>
