<svg width="89" height="90" viewBox="0 0 89 90" fill="none" xmlns="http://www.w3.org/2000/svg">
<path d="M11.2773 11.8832C11.1594 11.8853 11.0435 11.9139 10.9382 11.9669C10.8329 12.02 10.7409 12.096 10.6691 12.1895C10.5972 12.2829 10.5473 12.3913 10.5231 12.5067C10.4988 12.6221 10.5009 12.7414 10.5291 12.8559L27.4906 81.5125C27.5235 81.6463 27.5911 81.7692 27.6866 81.8686C27.7821 81.9681 27.9021 82.0406 28.0346 82.079C28.167 82.1173 28.3072 82.1201 28.4411 82.0871C28.5749 82.054 28.6977 81.9863 28.7971 81.8907L79.8233 32.8086C79.9227 32.713 79.9952 32.593 80.0335 32.4605C80.0718 32.328 80.0745 32.1878 80.0414 32.054C80.0082 31.9201 79.9404 31.7974 79.8448 31.698C79.7491 31.5987 79.629 31.5263 79.4965 31.4882L11.5074 11.9138C11.4327 11.8922 11.3551 11.8819 11.2773 11.8832ZM12.3787 13.7981L77.7547 32.6202L28.6893 79.8159L12.3787 13.7981Z" fill="#6B6B6B"/>
<path d="M45.2906 21.6718C45.1872 21.6696 45.0845 21.6878 44.9882 21.7254C44.8919 21.763 44.804 21.8192 44.7295 21.8908L19.2282 46.4388C19.1289 46.5345 19.0566 46.6545 19.0185 46.7869C18.9803 46.9194 18.9777 47.0595 19.0109 47.1932C19.0441 47.327 19.1119 47.4497 19.2076 47.5489C19.3032 47.6481 19.4232 47.7204 19.5557 47.7586L53.528 57.5499C53.6603 57.5881 53.8003 57.5908 53.934 57.5577C54.0677 57.5246 54.1903 57.457 54.2896 57.3615C54.3889 57.266 54.4613 57.1461 54.4995 57.0138C54.5378 56.8815 54.5406 56.7415 54.5076 56.6078L46.0367 22.2684C45.9952 22.1007 45.8997 21.9514 45.7648 21.8436C45.6299 21.7357 45.4632 21.6753 45.2906 21.6718ZM44.8379 23.9663L52.6588 55.6656L21.2974 46.6266L44.8379 23.9663Z" fill="#6B6B6B"/>
<path d="M32.6199 33.8209C32.502 33.823 32.3862 33.8516 32.2809 33.9047C32.1756 33.9577 32.0836 34.0338 32.0117 34.1272C31.9398 34.2206 31.8899 34.3291 31.8657 34.4445C31.8415 34.5598 31.8435 34.6792 31.8717 34.7936L36.0812 51.8504C36.1141 51.9843 36.1818 52.1072 36.2774 52.2067C36.373 52.3062 36.4931 52.3787 36.6256 52.417C36.7582 52.4553 36.8984 52.458 37.0324 52.4248C37.1663 52.3916 37.289 52.3237 37.3884 52.2279L50.0583 40.0161C50.1576 39.9205 50.2299 39.8004 50.268 39.6679C50.3061 39.5354 50.3086 39.3953 50.2753 39.2615C50.2421 39.1278 50.1742 39.0051 50.0785 38.9059C49.9828 38.8067 49.8626 38.7345 49.7302 38.6964L32.8501 33.8515C32.7753 33.8299 32.6977 33.8196 32.6199 33.8209ZM33.7206 35.7337L47.9898 39.8291L37.2785 50.1517L33.7206 35.7337Z" fill="#6B6B6B"/>
<path d="M28.4397 16.783C28.3363 16.7809 28.2335 16.7992 28.1372 16.8369C28.0409 16.8746 27.953 16.931 27.8786 17.0028L15.2086 29.2138C15.1093 29.3095 15.037 29.4296 14.999 29.5621C14.9609 29.6945 14.9583 29.8347 14.9916 29.9685C15.0249 30.1022 15.0927 30.2249 15.1885 30.3241C15.2842 30.4233 15.4043 30.4955 15.5368 30.5335L32.4141 35.3792C32.5464 35.4172 32.6865 35.4198 32.8201 35.3866C32.9538 35.3535 33.0764 35.2857 33.1756 35.1902C33.2748 35.0946 33.3471 34.9747 33.3853 34.8424C33.4234 34.7101 33.4261 34.57 33.3931 34.4363L29.1858 17.3803C29.1446 17.2124 29.0492 17.0628 28.9143 16.9546C28.7794 16.8465 28.6125 16.7866 28.4397 16.783ZM27.9877 19.0776L31.5436 33.4956L17.2778 29.4002L27.9877 19.0776ZM62.1978 26.5063C62.0945 26.5042 61.9919 26.5226 61.8957 26.5603C61.7995 26.598 61.7117 26.6543 61.6374 26.726L48.966 38.9364C48.8666 39.032 48.7941 39.1522 48.7559 39.2847C48.7177 39.4173 48.7152 39.5576 48.7484 39.6915C48.7817 39.8253 48.8497 39.9481 48.9455 40.0473C49.0413 40.1466 49.1616 40.2188 49.2942 40.2568L66.1722 45.1017C66.3046 45.1398 66.4446 45.1424 66.5783 45.1092C66.7119 45.076 66.8345 45.0082 66.9337 44.9127C67.0329 44.8172 67.1052 44.6972 67.1434 44.5649C67.1816 44.4326 67.1843 44.2926 67.1512 44.1589L62.9446 27.1029C62.9033 26.935 62.8077 26.7854 62.6726 26.6774C62.5376 26.5694 62.3707 26.5097 62.1978 26.5063ZM61.7459 28.8008L65.3017 43.2195L51.036 39.1241L61.7459 28.8015V28.8008ZM36.8126 50.8916C36.6201 50.899 36.4369 50.9769 36.2981 51.1106L23.6281 63.3224C23.5289 63.4181 23.4566 63.5382 23.4185 63.6706C23.3804 63.8031 23.3779 63.9433 23.4111 64.077C23.4444 64.2108 23.5123 64.3334 23.608 64.4326C23.7037 64.5318 23.8238 64.6041 23.9563 64.6421L40.8371 69.487C40.9693 69.5249 41.1092 69.5273 41.2427 69.4941C41.3762 69.4609 41.4986 69.3932 41.5977 69.2978C41.6967 69.2024 41.769 69.0826 41.8072 68.9504C41.8454 68.8183 41.8483 68.6785 41.8154 68.5449L37.6053 51.4882C37.562 51.3127 37.4596 51.1575 37.3152 51.0488C37.1707 50.9401 36.9932 50.8846 36.8126 50.8916ZM36.408 53.1861L39.9666 67.6048L25.6974 63.5094L36.408 53.1861Z" fill="#6B6B6B"/>
</svg>
